<svg id="Layer_1" enable-background="new 0 0 510 510" height="512" viewBox="0 0 510 510" width="512" xmlns="http://www.w3.org/2000/svg"><g id="XMLID_118_"><path id="XMLID_175_" d="m0 255c0 140.074 113.209 255 255 255l15-255-15-255c-142.576 0-255 115.762-255 255z" fill="#bee75e"/><path id="XMLID_174_" d="m510 255c0-140.074-113.209-255-255-255v510c140.073 0 255-113.21 255-255z" fill="#00cb75"/><path id="XMLID_168_" d="m60 255c0 107.521 87.474 195 195 195l15-195-15-195c-107.52 0-195 87.474-195 195z" fill="#f9f9f9"/><path id="XMLID_167_" d="m450 255c0-107.52-87.474-195-195-195v390c107.521 0 195-87.474 195-195z" fill="#d8f1fb"/><path id="XMLID_166_" d="m212.574 170.303 21.213 21.213 21.213-21.213 15-21.213-15-21.213c-5.133 5.133-37.259 37.259-42.426 42.426z" fill="#df5ccb"/><path id="XMLID_165_" d="m297.426 170.303c-5.133-5.133-37.259-37.259-42.426-42.426v42.426c7.419 7.419 13.794 13.794 21.213 21.213 7.419-7.419 13.794-13.794 21.213-21.213z" fill="#ec3d93"/><path id="XMLID_164_" d="m233.787 318.483c-7.419 7.419-13.794 13.794-21.213 21.213 5.133 5.133 37.259 37.261 42.426 42.428l15-21.214-15-21.214c-7.419-7.419-13.794-13.794-21.213-21.213z" fill="#df5ccb"/><path id="XMLID_163_" d="m276.213 318.483c-7.419 7.419-13.794 13.794-21.213 21.213v42.428c5.133-5.133 37.259-37.261 42.426-42.428-7.419-7.419-13.794-13.794-21.213-21.213z" fill="#ec3d93"/><path id="XMLID_149_" d="m318.483 233.787c7.419 7.419 13.794 13.794 21.213 21.213-7.419 7.419-13.794 13.794-21.213 21.213l21.213 21.213c5.133-5.133 37.261-37.259 42.428-42.426-5.133-5.133-37.261-37.259-42.428-42.426-7.419 7.419-13.794 13.794-21.213 21.213z" fill="#ec3d93"/><path id="XMLID_162_" d="m170.303 297.426-42.426-42.426 42.426-42.426 21.214 21.213-21.214 21.213 21.213 21.213z" fill="#df5ccb"/></g></svg>